<svg width="18" height="17" viewBox="0 0 18 17" fill="none" xmlns="http://www.w3.org/2000/svg">
<path d="M9 16.5078C7.88542 16.5078 6.83594 16.2943 5.85156 15.8672C4.86719 15.4453 4 14.8594 3.25 14.1094C2.5 13.3594 1.91146 12.4948 1.48438 11.5156C1.0625 10.5312 0.851562 9.47917 0.851562 8.35938C0.851562 7.24479 1.0625 6.19792 1.48438 5.21875C1.91146 4.23438 2.4974 3.36719 3.24219 2.61719C3.99219 1.86719 4.85938 1.28125 5.84375 0.859375C6.82812 0.432292 7.8776 0.21875 8.99219 0.21875C10.1068 0.21875 11.1562 0.432292 12.1406 0.859375C13.1302 1.28125 13.9974 1.86719 14.7422 2.61719C15.4922 3.36719 16.0807 4.23438 16.5078 5.21875C16.9349 6.19792 17.1484 7.24479 17.1484 8.35938C17.1484 9.47917 16.9349 10.5312 16.5078 11.5156C16.0807 12.4948 15.4922 13.3594 14.7422 14.1094C13.9974 14.8594 13.1328 15.4453 12.1484 15.8672C11.1641 16.2943 10.1146 16.5078 9 16.5078ZM9 14.7188C9.88021 14.7188 10.7031 14.5547 11.4688 14.2266C12.2396 13.8984 12.9167 13.4453 13.5 12.8672C14.0833 12.2839 14.5391 11.6094 14.8672 10.8438C15.1953 10.0729 15.3594 9.24479 15.3594 8.35938C15.3594 7.47917 15.1927 6.65625 14.8594 5.89062C14.5312 5.11979 14.0755 4.44271 13.4922 3.85938C12.9141 3.27604 12.2396 2.82031 11.4688 2.49219C10.7031 2.16406 9.8776 2 8.99219 2C8.11198 2 7.28646 2.16406 6.51562 2.49219C5.75 2.82031 5.07552 3.27604 4.49219 3.85938C3.91406 4.44271 3.46094 5.11979 3.13281 5.89062C2.8099 6.65625 2.64844 7.47917 2.64844 8.35938C2.64844 9.24479 2.8099 10.0729 3.13281 10.8438C3.46094 11.6094 3.91667 12.2839 4.5 12.8672C5.08333 13.4453 5.75781 13.8984 6.52344 14.2266C7.29427 14.5547 8.11979 14.7188 9 14.7188ZM7.63281 12.5938C7.45052 12.5938 7.29688 12.5365 7.17188 12.4219C7.04688 12.3021 6.98438 12.1484 6.98438 11.9609C6.98438 11.7839 7.04688 11.6354 7.17188 11.5156C7.29688 11.3958 7.45052 11.3359 7.63281 11.3359H8.53125V8.30469H7.77344C7.59115 8.30469 7.4375 8.2474 7.3125 8.13281C7.1875 8.01302 7.125 7.85938 7.125 7.67188C7.125 7.49479 7.1875 7.34635 7.3125 7.22656C7.4375 7.10677 7.59115 7.04688 7.77344 7.04688H9.25C9.47917 7.04688 9.65365 7.1224 9.77344 7.27344C9.89323 7.41927 9.95312 7.61458 9.95312 7.85938V11.3359H10.7578C10.9401 11.3359 11.0938 11.3958 11.2188 11.5156C11.3438 11.6354 11.4062 11.7839 11.4062 11.9609C11.4062 12.1484 11.3438 12.3021 11.2188 12.4219C11.0938 12.5365 10.9401 12.5938 10.7578 12.5938H7.63281ZM8.96875 5.89844C8.67188 5.89844 8.41667 5.79427 8.20312 5.58594C7.98958 5.3724 7.88281 5.11719 7.88281 4.82031C7.88281 4.51302 7.98958 4.25521 8.20312 4.04688C8.41667 3.83333 8.67188 3.72656 8.96875 3.72656C9.27083 3.72656 9.52604 3.83333 9.73438 4.04688C9.94271 4.25521 10.0469 4.51302 10.0469 4.82031C10.0469 5.11719 9.94271 5.3724 9.73438 5.58594C9.52604 5.79427 9.27083 5.89844 8.96875 5.89844Z" fill="white"/>
</svg>
