<svg width="23" height="14" viewBox="0 0 23 14" fill="none" xmlns="http://www.w3.org/2000/svg">
<path d="M1.46143 11.5557C1.07959 11.5557 0.758626 11.4284 0.498535 11.1738C0.243978 10.9137 0.116699 10.5955 0.116699 10.2192V3.79443C0.116699 3.4126 0.243978 3.0944 0.498535 2.83984C0.758626 2.57975 1.07959 2.44971 1.46143 2.44971C1.84326 2.44971 2.16146 2.57975 2.41602 2.83984C2.67611 3.0944 2.80615 3.4126 2.80615 3.79443V10.2192C2.80615 10.5955 2.67611 10.9137 2.41602 11.1738C2.16146 11.4284 1.84326 11.5557 1.46143 11.5557ZM5.80273 13.5479C5.17188 13.5479 4.65999 13.3542 4.26709 12.9668C3.87972 12.5739 3.68604 12.0675 3.68604 11.4478V2.57422C3.68604 1.95443 3.87972 1.44808 4.26709 1.05518C4.65999 0.662272 5.17188 0.46582 5.80273 0.46582C6.43359 0.46582 6.94548 0.662272 7.33838 1.05518C7.73128 1.44808 7.92773 1.95443 7.92773 2.57422V11.4478C7.92773 12.0675 7.73128 12.5739 7.33838 12.9668C6.94548 13.3542 6.43359 13.5479 5.80273 13.5479ZM8.85742 8.82471V5.18896H14.1533V8.82471H8.85742ZM17.208 13.5479C16.5827 13.5479 16.0736 13.3542 15.6807 12.9668C15.2878 12.5739 15.0913 12.0675 15.0913 11.4478V2.57422C15.0913 1.95443 15.2878 1.44808 15.6807 1.05518C16.0736 0.662272 16.5827 0.46582 17.208 0.46582C17.8444 0.46582 18.3563 0.662272 18.7437 1.05518C19.1366 1.44808 19.333 1.95443 19.333 2.57422V11.4478C19.333 12.0675 19.1366 12.5739 18.7437 12.9668C18.3563 13.3542 17.8444 13.5479 17.208 13.5479ZM21.4912 11.5557C21.1149 11.5557 20.7967 11.4284 20.5366 11.1738C20.2821 10.9137 20.1548 10.5955 20.1548 10.2192V3.79443C20.1548 3.4126 20.2821 3.0944 20.5366 2.83984C20.7967 2.57975 21.1149 2.44971 21.4912 2.44971C21.8675 2.44971 22.1857 2.57975 22.4458 2.83984C22.7114 3.0944 22.8442 3.4126 22.8442 3.79443V10.2192C22.8442 10.5955 22.7114 10.9137 22.4458 11.1738C22.1857 11.4284 21.8675 11.5557 21.4912 11.5557Z" fill="white"/>
</svg>
