<svg width="24" height="24" viewBox="0 0 24 24" fill="none" xmlns="http://www.w3.org/2000/svg">
<path d="M10 4.09247C10 3.70424 10.0883 3.35221 10.2648 3.03636C10.4476 2.72052 10.6903 2.46719 10.9929 2.27636C11.2955 2.09212 11.6296 2 11.9953 2C12.3672 2 12.7045 2.09212 13.0071 2.27636C13.3097 2.46719 13.5493 2.72052 13.7258 3.03636C13.9086 3.35221 14 3.70424 14 4.09247C14 4.47411 13.9086 4.82286 13.7258 5.1387C13.5493 5.45455 13.3097 5.70459 13.0071 5.88883C12.7045 6.07965 12.3672 6.17506 11.9953 6.17506C11.6296 6.17506 11.2955 6.07965 10.9929 5.88883C10.6903 5.70459 10.4476 5.45455 10.2648 5.1387C10.0883 4.82286 10 4.47411 10 4.09247ZM10 11.4951C10 11.1134 10.0883 10.7647 10.2648 10.4488C10.4476 10.133 10.6903 9.87965 10.9929 9.68883C11.2955 9.50459 11.6296 9.41247 11.9953 9.41247C12.3672 9.41247 12.7045 9.50459 13.0071 9.68883C13.3097 9.87965 13.5493 10.133 13.7258 10.4488C13.9086 10.7647 14 11.1134 14 11.4951C14 11.8767 13.9086 12.2255 13.7258 12.5413C13.5493 12.8637 13.3097 13.1171 13.0071 13.3013C12.7045 13.4921 12.3672 13.5875 11.9953 13.5875C11.6296 13.5875 11.2955 13.4921 10.9929 13.3013C10.6903 13.1171 10.4476 12.8637 10.2648 12.5413C10.0883 12.2255 10 11.8767 10 11.4951ZM10 18.9075C10 18.5193 10.0883 18.1673 10.2648 17.8514C10.4476 17.5356 10.6903 17.2823 10.9929 17.0914C11.2955 16.9072 11.6296 16.8151 11.9953 16.8151C12.3672 16.8151 12.7045 16.9072 13.0071 17.0914C13.3097 17.2823 13.5493 17.5356 13.7258 17.8514C13.9086 18.1673 14 18.5193 14 18.9075C14 19.2892 13.9086 19.6379 13.7258 19.9538C13.5493 20.2696 13.3097 20.5229 13.0071 20.7138C12.7045 20.9046 12.3672 21 11.9953 21C11.6296 21 11.2955 20.9046 10.9929 20.7138C10.6903 20.5229 10.4476 20.2696 10.2648 19.9538C10.0883 19.6379 10 19.2892 10 18.9075Z" fill="white"/>
</svg>
