<svg width="19" height="20" viewBox="0 0 19 20" fill="none" xmlns="http://www.w3.org/2000/svg">
<path d="M5.85645 3.93896C5.85645 3.30811 6.00863 2.73535 6.31299 2.2207C6.61735 1.70052 7.02686 1.28548 7.5415 0.975586C8.05615 0.66569 8.62891 0.510742 9.25977 0.510742C9.89062 0.510742 10.4634 0.66569 10.978 0.975586C11.4927 1.28548 11.9022 1.70052 12.2065 2.2207C12.5164 2.73535 12.6714 3.30811 12.6714 3.93896C12.6714 4.45915 12.5635 4.94336 12.3477 5.3916C12.1318 5.83431 11.8385 6.21615 11.4678 6.53711C11.097 6.85254 10.6737 7.07666 10.1978 7.20947V12.4224C10.1978 12.9536 10.1673 13.4378 10.1064 13.875C10.0456 14.3066 9.9681 14.6802 9.87402 14.9956C9.77995 15.311 9.67757 15.5545 9.56689 15.7261C9.45622 15.8921 9.35384 15.9751 9.25977 15.9751C9.16569 15.9751 9.06331 15.8921 8.95264 15.7261C8.84749 15.5545 8.74512 15.311 8.64551 14.9956C8.55143 14.6802 8.47119 14.3066 8.40479 13.875C8.34391 13.4378 8.31348 12.9536 8.31348 12.4224V7.20947C7.8431 7.07666 7.42253 6.85254 7.05176 6.53711C6.68099 6.21615 6.3877 5.83431 6.17188 5.3916C5.96159 4.94336 5.85645 4.45915 5.85645 3.93896ZM8.29688 4.12988C8.61784 4.12988 8.89176 4.01367 9.11865 3.78125C9.35107 3.54883 9.46729 3.2749 9.46729 2.95947C9.46729 2.64404 9.35107 2.37288 9.11865 2.146C8.89176 1.91357 8.61784 1.79736 8.29688 1.79736C7.98698 1.79736 7.71582 1.91357 7.4834 2.146C7.25098 2.37288 7.13477 2.64404 7.13477 2.95947C7.13477 3.2749 7.25098 3.54883 7.4834 3.78125C7.71582 4.01367 7.98698 4.12988 8.29688 4.12988ZM9.25977 19.3867C7.89844 19.3867 6.67546 19.2816 5.59082 19.0713C4.51172 18.8665 3.59033 18.5788 2.82666 18.208C2.06852 17.8428 1.48747 17.4194 1.0835 16.938C0.685059 16.4621 0.48584 15.953 0.48584 15.4106C0.48584 14.9569 0.610352 14.5363 0.859375 14.1489C1.1084 13.7616 1.44596 13.4129 1.87207 13.103C2.29818 12.7876 2.78516 12.5164 3.33301 12.2896C3.88086 12.0571 4.45638 11.8717 5.05957 11.7334C5.66829 11.5951 6.26872 11.512 6.86084 11.4844V13.1279C6.36833 13.1556 5.86475 13.2275 5.3501 13.3438C4.84098 13.46 4.37061 13.6121 3.93896 13.8003C3.51286 13.9884 3.16976 14.207 2.90967 14.4561C2.64958 14.7051 2.51953 14.9735 2.51953 15.2612C2.51953 15.6209 2.68555 15.9474 3.01758 16.2407C3.34961 16.5396 3.81722 16.7941 4.42041 17.0044C5.0236 17.2147 5.7347 17.3779 6.55371 17.4941C7.37826 17.6159 8.28027 17.6768 9.25977 17.6768C10.2337 17.6768 11.1302 17.6159 11.9492 17.4941C12.7738 17.3779 13.4876 17.2119 14.0908 16.9961C14.694 16.7858 15.1616 16.534 15.4937 16.2407C15.8312 15.9474 16 15.6209 16 15.2612C16 14.9735 15.8672 14.7051 15.6016 14.4561C15.3359 14.207 14.9901 13.9884 14.564 13.8003C14.1379 13.6121 13.6702 13.46 13.1611 13.3438C12.652 13.2275 12.1457 13.1556 11.6421 13.1279V11.4844C12.2397 11.512 12.8402 11.5951 13.4434 11.7334C14.0521 11.8717 14.6304 12.0571 15.1782 12.2896C15.7261 12.5164 16.2131 12.7876 16.6392 13.103C17.0708 13.4129 17.4084 13.7616 17.6519 14.1489C17.9009 14.5363 18.0254 14.9569 18.0254 15.4106C18.0254 15.953 17.8234 16.4621 17.4194 16.938C17.021 17.4194 16.4427 17.8428 15.6846 18.208C14.9264 18.5788 14.005 18.8665 12.9204 19.0713C11.8413 19.2816 10.6211 19.3867 9.25977 19.3867Z" fill="white"/>
</svg>
